<svg width="100" height="100" viewBox="0 0 100 100" fill="none" xmlns="http://www.w3.org/2000/svg">
  <style>
    @keyframes spin {
      from { transform: rotate(0deg); }
      to { transform: rotate(360deg); }
    }
    @keyframes pulse {
      0%, 100% { opacity: 0.3; }
      50% { opacity: 0.15; }
    }
    @keyframes ping {
      75%, 100% { transform: scale(2); opacity: 0; }
    }
    .animate-spin { transform-origin: center; animation: spin 18s linear infinite; }
    .animate-pulse { animation: pulse 4s ease-in-out infinite; }
    .animate-ping { transform-origin: center; animation: ping 1s cubic-bezier(0, 0, 0.2, 1) infinite; }
  </style>
  <defs>
    <filter id="horizonGlow" x="-50%" y="-50%" width="200%" height="200%">
      <feGaussianBlur stdDeviation="4" result="blur" />
      <feColorMatrix in="blur" type="matrix" values="1 0 0 0 1  0 1 0 0 1  0 0 1 0 1  0 0 0 22 -8" result="glow" />
      <feComposite in="SourceGraphic" in2="glow" operator="over" />
    </filter>

    <linearGradient id="vortexGradMain" x1="0%" y1="0%" x2="100%" y2="100%">
      <stop offset="0%" stop-color="#ffffff" />
      <stop offset="100%" stop-color="#94a3b8" />
    </linearGradient>

    <radialGradient id="singularityGrad" cx="50%" cy="50%" r="50%">
      <stop offset="65%" stop-color="#000000" />
      <stop offset="100%" stop-color="#0f172a" />
    </radialGradient>
  </defs>

  <!-- 1. HALO DE RADIAÇÃO CIRCULAR -->
  <g class="animate-pulse">
    <circle cx="50" cy="50" r="45" fill="white" filter="url(#horizonGlow)" />
    <circle cx="50" cy="50" r="30" fill="white" opacity="0.5" filter="url(#horizonGlow)" />
  </g>

  <!-- 2. DISCO DE ACREÇÃO -->
  <g class="animate-spin">
    <path d="M50 5 C80 5 100 25 100 50 C100 70 85 85 70 90 C85 75 90 55 85 40 C80 30 65 20 50 20 Z" fill="url(#vortexGradMain)" />
    <path d="M50 10 C75 10 95 30 95 50 C95 65 85 80 70 85 C80 70 85 55 80 45 C75 35 60 25 50 25 Z" fill="#e2e8f0" opacity="0.5" transform="rotate(90 50 50)" />
    <path d="M50 8 C75 8 95 25 95 50 C95 65 85 80 70 85 C80 70 80 55 75 45 C70 35 60 25 50 25 Z" fill="#ffffff" opacity="0.75" transform="rotate(180 50 50)" />
    <path d="M50 12 C70 12 90 32 90 50 C90 65 80 80 65 85 C75 70 75 55 70 45 C65 35 55 25 50 25 Z" fill="#cbd5e1" opacity="0.3" transform="rotate(270 50 50)" />
  </g>

  <!-- 3. ESFERA DE FÓTONS -->
  <circle cx="50" cy="50" r="26" stroke="white" stroke-width="1.5" stroke-opacity="0.85" filter="url(#horizonGlow)" />

  <!-- 4. SINGULARIDADE -->
  <circle cx="50" cy="50" r="24" fill="url(#singularityGrad)" />
  <circle cx="50" cy="50" r="20" fill="#000000" />

  <!-- 5. ENXAME DE PARTÍCULAS -->
  <g>
    <circle cx="50" cy="12" r="1.5" fill="white" class="animate-ping" />
    <circle cx="88" cy="50" r="1" fill="white" class="animate-ping" style="animation-duration: 1.5s" />
    <circle cx="50" cy="88" r="1.8" fill="white" class="animate-ping" style="animation-duration: 0.7s" />
    <circle cx="12" cy="50" r="1.3" fill="white" class="animate-ping" style="animation-duration: 1.2s" />
  </g>
</svg>
