<svg viewBox="0 0 100 100" fill="none" xmlns="http://www.w3.org/2000/svg">
  <rect width="100" height="100" fill="#09090b" rx="22"/>
  <defs>
    <linearGradient id="vortexFavV81" x1="0%" y1="0%" x2="100%" y2="100%">
      <stop offset="0%" stopColor="#ffffff" />
      <stop offset="100%" stopColor="#94a3b8" />
    </linearGradient>
  </defs>
  
  {/* Event Horizon V8.1 - Pure Radial Glow (No vertical strips) */}
  <circle cx="50" cy="50" r="45" fill="white" opacity="0.2" />

  {/* Accretion Disk with Beaming */}
  <g>
    <path d="M50 5 C80 5 100 25 100 50 C100 70 85 85 70 90 C85 75 90 55 85 40 C80 30 65 20 50 20 Z" fill="url(#vortexFavV81)" opacity="1" />
    <path d="M50 10 C75 10 95 30 95 50 C95 65 85 80 70 85 C80 70 85 55 80 45 C75 35 60 25 50 25 Z" fill="white" opacity="0.4" transform="rotate(120 50 50)" />
  </g>

  {/* Photon Sphere */}
  <circle cx="50" cy="50" r="26" stroke="white" strokeWidth="1.5" strokeOpacity="0.8" />

  {/* Singularity */}
  <circle cx="50" cy="50" r="24" fill="black" />
</svg>